<?xml version="1.0" encoding="UTF-8"?>
<svg version="1.1" xmlns="http://www.w3.org/2000/svg" width="102" height="102">
<path d="M0 0 C0.6253076 2.35573806 1.14375946 4.67637162 1.625 7.0625 C3.30396618 14.7982816 5.59722168 22.25145545 8.125 29.75 C8.47385254 30.78519775 8.82270508 31.82039551 9.18212891 32.88696289 C10.9973954 38.26104593 10.9973954 38.26104593 13.08959961 43.5300293 C16.2971993 52.23243908 15.22082209 65.43993873 11.8125 73.875 C10.93116806 75.61297671 9.99893709 77.32684917 9 79 C8.60425781 79.680625 8.20851563 80.36125 7.80078125 81.0625 C1.58918704 90.63784789 -8.18630798 95.42510051 -18.92456055 98.56225586 C-28.80130033 100.64542189 -41.8273564 100.25073728 -51 96 C-51.73863281 95.67128906 -52.47726563 95.34257813 -53.23828125 95.00390625 C-64.08457711 89.59012473 -73.21422521 80.6643919 -77.3737793 69.21411133 C-78.41879105 65.51929198 -78.48946204 61.94482351 -78.4375 58.125 C-78.42920166 57.33416016 -78.42090332 56.54332031 -78.41235352 55.72851562 C-78.00027689 41.4510138 -69.11221336 29.62403754 -59 20 C-58.34 20 -57.68 20 -57 20 C-57 19.34 -57 18.68 -57 18 C-55.02866014 16.62464661 -53.02318078 15.29788956 -51 14 C-50.24847656 13.36835938 -49.49695313 12.73671875 -48.72265625 12.0859375 C-37.63021691 3.58756934 -13.27961726 -6.63980863 0 0 Z " fill="#DD21E5" transform="translate(84,2)"/>
<path d="M0 0 C0.6253076 2.35573806 1.14375946 4.67637162 1.625 7.0625 C3.30396618 14.7982816 5.59722168 22.25145545 8.125 29.75 C8.47385254 30.78519775 8.82270508 31.82039551 9.18212891 32.88696289 C10.9973954 38.26104593 10.9973954 38.26104593 13.08959961 43.5300293 C16.2971993 52.23243908 15.22082209 65.43993873 11.8125 73.875 C10.93116806 75.61297671 9.99893709 77.32684917 9 79 C8.60425781 79.680625 8.20851563 80.36125 7.80078125 81.0625 C1.58918704 90.63784789 -8.18630798 95.42510051 -18.92456055 98.56225586 C-28.80130033 100.64542189 -41.8273564 100.25073728 -51 96 C-51.73863281 95.67128906 -52.47726563 95.34257813 -53.23828125 95.00390625 C-64.08457711 89.59012473 -73.21422521 80.6643919 -77.3737793 69.21411133 C-78.41879105 65.51929198 -78.48946204 61.94482351 -78.4375 58.125 C-78.42920166 57.33416016 -78.42090332 56.54332031 -78.41235352 55.72851562 C-78.00027689 41.4510138 -69.11221336 29.62403754 -59 20 C-58.34 20 -57.68 20 -57 20 C-57 19.34 -57 18.68 -57 18 C-55.02866014 16.62464661 -53.02318078 15.29788956 -51 14 C-50.24847656 13.36835938 -49.49695313 12.73671875 -48.72265625 12.0859375 C-37.63021691 3.58756934 -13.27961726 -6.63980863 0 0 Z M-53 22 C-53.99 22.66 -54.98 23.32 -56 24 C-56 24.66 -56 25.32 -56 26 C-56.86625 26.33451172 -56.86625 26.33451172 -57.75 26.67578125 C-64.12190338 30.42591188 -70.27889505 40.73341884 -72.5859375 47.79296875 C-73.12705464 50.67722522 -73.17040221 53.4410196 -73.1875 56.375 C-73.20167969 57.47585937 -73.21585938 58.57671875 -73.23046875 59.7109375 C-72.87083441 64.84334618 -71.88534402 68.55595431 -68 72 C-66.88256555 73.46916926 -65.77927915 74.94916659 -64.6875 76.4375 C-59.06672982 83.65919641 -52.52589554 86.25677379 -44 89 C-43.39542969 89.1959375 -42.79085937 89.391875 -42.16796875 89.59375 C-28.03205575 92.24264181 -16.26335745 88.88124472 -4.19140625 81.5625 C0.78439286 78.01469315 2.72423428 74.63994113 5 69 C5.51691406 68.2575 6.03382812 67.515 6.56640625 66.75 C10.63143483 58.952234 8.24798767 46.74295685 5.921875 38.6015625 C4.84642752 35.56661325 3.50432982 32.80858764 1.9765625 29.98046875 C-1.1952211 23.5480916 -2.41886731 16.36743173 -3.5703125 9.34765625 C-3.96910037 6.85892906 -3.96910037 6.85892906 -5 4 C-23.9028521 3.71140684 -38.84782942 9.49206501 -53 22 Z " fill="#770287" transform="translate(84,2)"/>
<path d="M0 0 C3.12276528 3.26470915 3.74487741 6.58519567 4.5703125 10.87890625 C4.99058031 13.17436697 4.99058031 13.17436697 6 16 C7.29895428 26.09641738 7.29895428 26.09641738 4.47265625 30.23828125 C2.5625 32.0625 2.5625 32.0625 0.62890625 33.59765625 C-1.28613557 35.00401469 -1.28613557 35.00401469 -2 38 C-3.8125 38.8125 -3.8125 38.8125 -6 39 C-8 38.125 -8 38.125 -10 37 C-10.721875 36.855625 -11.44375 36.71125 -12.1875 36.5625 C-13.0846875 36.2840625 -13.0846875 36.2840625 -14 36 C-14.495 34.515 -14.495 34.515 -15 33 C-15.99 32.67 -16.98 32.34 -18 32 C-16.948125 31.7525 -16.948125 31.7525 -15.875 31.5 C-11.68640933 29.31464835 -9.60769051 25.85328838 -7 22 C-7.33 21.34 -7.66 20.68 -8 20 C-9.093125 19.690625 -10.18625 19.38125 -11.3125 19.0625 C-16.9739777 17.43122677 -16.9739777 17.43122677 -19 15 C-19.48789736 10.67862342 -19.42129146 8.10003881 -17.875 4.0625 C-16 2 -16 2 -13.3125 0.875 C-9.126362 1.03296747 -7.00955748 2.51331887 -3.63671875 4.87109375 C-2.19418399 6.09462981 -2.19418399 6.09462981 -1 6 C-0.67 4.02 -0.34 2.04 0 0 Z " fill="#F03CF6" transform="translate(78,24)"/>
<path d="M0 0 C0.625 2.5625 0.625 2.5625 1 5 C0.01 4.505 0.01 4.505 -1 4 C-1 3.01 -1 2.02 -1 1 C-3.66740923 1.11518358 -6.33347241 1.24189546 -9 1.375 C-9.74378906 1.4059375 -10.48757812 1.436875 -11.25390625 1.46875 C-18.33626711 1.83826448 -24.72189937 3.55391369 -31.5 5.625 C-32.3559375 5.88539063 -33.211875 6.14578125 -34.09375 6.4140625 C-34.7228125 6.60742188 -35.351875 6.80078125 -36 7 C-36.06960937 7.76441406 -36.13921875 8.52882813 -36.2109375 9.31640625 C-37 12 -37 12 -39.0390625 13.58984375 C-39.89242187 14.03457031 -40.74578125 14.47929687 -41.625 14.9375 C-45.07784783 16.84200776 -48.06219244 18.74088985 -51 21.375 C-54 24 -54 24 -56 24 C-56 24.66 -56 25.32 -56 26 C-57.1595361 27.1595361 -58.32282619 28.3155408 -59.50390625 29.453125 C-65.25189408 35.39621424 -69.81437561 42.55182071 -72.625 50.3125 C-74 54 -74 54 -76 56 C-76.74939916 60.69104408 -76.2270542 64.93712207 -74.4375 69.3125 C-73.00288115 72.99260923 -72.84803243 73.54409729 -74 77 C-79.2786805 67.62091589 -79.60022376 56.347773 -77.33984375 45.96875 C-73.79129452 36.2601651 -66.42605195 27.06755289 -59 20 C-58.34 20 -57.68 20 -57 20 C-57 19.34 -57 18.68 -57 18 C-55.02866014 16.62464661 -53.02318078 15.29788956 -51 14 C-50.24847656 13.36835938 -49.49695313 12.73671875 -48.72265625 12.0859375 C-37.63021691 3.58756934 -13.27961726 -6.63980863 0 0 Z " fill="#72077D" transform="translate(84,2)"/>
<path d="M0 0 C0.78375 0.00451172 1.5675 0.00902344 2.375 0.01367188 C4.29170014 0.02535907 6.20836048 0.04329092 8.125 0.0625 C10.85065452 5.8309212 11.97542976 11.11238671 12.85351562 17.39453125 C13.51587026 21.65084566 14.57736223 25.32093725 16.20703125 29.31640625 C18.56065104 35.51968665 18.58410463 41.1833104 18.375 47.75 C18.35695312 48.84505859 18.33890625 49.94011719 18.3203125 51.06835938 C18.27375049 53.73403462 18.20838317 56.3977664 18.125 59.0625 C17.795 59.0625 17.465 59.0625 17.125 59.0625 C17.00382812 58.0003125 16.88265625 56.938125 16.7578125 55.84375 C15.64246998 46.31714766 14.62598677 37.78325901 10.13671875 29.171875 C6.20047951 20.96504415 5.21984087 12.00155369 4.125 3.0625 C0.80935161 3.45615105 -2.50149132 3.88169136 -5.8125 4.3125 C-6.73869141 4.42207031 -7.66488281 4.53164062 -8.61914062 4.64453125 C-14.28703729 5.4002508 -18.97467907 6.69136371 -24.09985352 9.24902344 C-25.875 10.0625 -25.875 10.0625 -27.875 10.0625 C-27.73046875 8.23046875 -27.73046875 8.23046875 -26.875 6.0625 C-24.36328125 4.61328125 -24.36328125 4.61328125 -21.1875 3.375 C-20.15238281 2.95863281 -19.11726563 2.54226562 -18.05078125 2.11328125 C-11.9899356 0.1079092 -6.31174541 -0.06953618 0 0 Z " fill="#7B038A" transform="translate(74.875,2.9375)"/>
<path d="M0 0 C4.39829718 0.35069479 6.36040288 0.55631209 9.5390625 3.8125 C11.13172193 7.55178735 11.29842066 10.16427306 10.9765625 14.1875 C3.85662137 16.35968543 3.85662137 16.35968543 0.1015625 15.625 C-2.7045405 13.72675385 -3.2211769 12.46947519 -4.0234375 9.1875 C-4.2734375 5.5 -4.2734375 5.5 -4.0234375 2.1875 C-2.0234375 0.1875 -2.0234375 0.1875 0 0 Z " fill="#F288FE" transform="translate(65.0234375,27.8125)"/>
<path d="M0 0 C0.93423645 3.01031744 1.04449911 3.86650268 0 7 C-0.1190686 8.78879802 -0.17522113 10.5822856 -0.1875 12.375 C-0.20167969 13.31085937 -0.21585938 14.24671875 -0.23046875 15.2109375 C0.01331892 18.16118154 0.76887492 20.32364112 2 23 C2.99 23 3.98 23 5 23 C5.7425 24.5159375 5.7425 24.5159375 6.5 26.0625 C11.25918878 34.28291699 18.28037933 37.99862975 27 41 C28.09828125 41.54333984 28.09828125 41.54333984 29.21875 42.09765625 C33.25644578 43.40763901 37.09887798 43.21146738 41.3125 43.125 C42.14845703 43.11597656 42.98441406 43.10695312 43.84570312 43.09765625 C45.89725969 43.07420989 47.94866777 43.03834266 50 43 C50.33 43.66 50.66 44.32 51 45 C40.28079863 48.57306712 27.83946983 45.95035954 17.8125 41.625 C16.884375 41.08875 15.95625 40.5525 15 40 C14.43667969 39.67515625 13.87335937 39.3503125 13.29296875 39.015625 C8.6629704 36.07017943 6.08528986 32.563055 3.26171875 27.890625 C2.13196217 25.85942899 2.13196217 25.85942899 0 25 C-1.77501595 20.74996181 -2.27182367 17.08297113 -2.25 12.5 C-2.25515625 11.4171875 -2.2603125 10.334375 -2.265625 9.21875 C-1.98879794 5.86425744 -1.19052385 3.13693587 0 0 Z " fill="#A713B8" transform="translate(13,46)"/>
<path d="M0 0 C9.29203959 13.93805938 13.72768127 33.47846787 11 50 C9.8493104 54.39942369 8.32717826 58.1021367 6 62 C5.60425781 62.680625 5.20851563 63.36125 4.80078125 64.0625 C1.23656154 69.55684534 -3.53123668 74.52430171 -9.9375 76.375 C-11.4534375 76.684375 -11.4534375 76.684375 -13 77 C-10.59563974 73.39345961 -9.05320393 73.14547068 -5 72 C-5 71.34 -5 70.68 -5 70 C-2.525 69.01 -2.525 69.01 0 68 C0 67.01 0 66.02 0 65 C0.66 65 1.32 65 2 65 C3.45232253 61.42152963 4.81226545 57.81939893 6.125 54.1875 C6.47820312 53.21167969 6.83140625 52.23585937 7.1953125 51.23046875 C7.46085937 50.49441406 7.72640625 49.75835937 8 49 C8.66 49 9.32 49 10 49 C9.67 45.37 9.34 41.74 9 38 C8.01 38.495 8.01 38.495 7 39 C4.95059469 28.021043 4.95059469 28.021043 5.1875 23.125 C5.39726973 17.88075687 2.99328595 13.05530655 1.09375 8.26953125 C0.0811421 5.24255693 -0.23730242 3.15018967 0 0 Z " fill="#6D106D" transform="translate(87,19)"/>
<path d="M0 0 C0.625 2.5625 0.625 2.5625 1 5 C0.01 4.505 0.01 4.505 -1 4 C-1 3.01 -1 2.02 -1 1 C-3.66740923 1.11518358 -6.33347241 1.24189546 -9 1.375 C-9.74378906 1.4059375 -10.48757812 1.436875 -11.25390625 1.46875 C-16.42109826 1.73834263 -21.01219065 2.61764953 -26 4 C-26.96808594 4.23460937 -27.93617187 4.46921875 -28.93359375 4.7109375 C-29.75988281 4.93007812 -30.58617187 5.14921875 -31.4375 5.375 C-32.28183594 5.58898437 -33.12617187 5.80296875 -33.99609375 6.0234375 C-36.2060905 6.8157645 -36.2060905 6.8157645 -36.78515625 9.1015625 C-36.85605469 9.72804688 -36.92695312 10.35453125 -37 11 C-38.32 11 -39.64 11 -41 11 C-41 11.66 -41 12.32 -41 13 C-42.09441406 12.88205078 -42.09441406 12.88205078 -43.2109375 12.76171875 C-46.86837949 13.07418928 -47.99042164 14.29687417 -50.625 16.8125 C-51.48351562 17.62203125 -52.34203125 18.4315625 -53.2265625 19.265625 C-55.17072391 21.18240385 -57.1035895 23.10611898 -59.0234375 25.046875 C-59.52020996 25.54856201 -60.01698242 26.05024902 -60.52880859 26.56713867 C-61.94464355 28.00623411 -63.3476051 29.45796039 -64.75 30.91015625 C-67 33 -67 33 -69 33 C-67.49017269 29.57143381 -65.48286031 27.04321784 -63 24.25 C-62.29875 23.45078125 -61.5975 22.6515625 -60.875 21.828125 C-59 20 -59 20 -57 20 C-57 19.34 -57 18.68 -57 18 C-55.02866014 16.62464661 -53.02318078 15.29788956 -51 14 C-50.24847656 13.36835938 -49.49695313 12.73671875 -48.72265625 12.0859375 C-37.63021691 3.58756934 -13.27961726 -6.63980863 0 0 Z " fill="#6F0C74" transform="translate(84,2)"/>
<path d="M0 0 C0.76699219 0.42667969 1.53398438 0.85335938 2.32421875 1.29296875 C5.25165999 3.53024703 6.04013116 5.65013719 6.8671875 9.1796875 C7.44440402 13.69887054 7.68000055 16.09062392 5.5625 20.25 C4.82 21.095625 4.0775 21.94125 3.3125 22.8125 C2.85875 23.410625 2.405 24.00875 1.9375 24.625 C-0.44087074 26.36304016 -2.80802705 26.49255856 -5.6875 26.8125 C-4.66129138 24.6022045 -3.63033206 22.73932503 -2.125 20.8125 C-0.65556014 18.76806194 -0.12585352 17.26727972 0.3125 14.8125 C1.6325 14.8125 2.9525 14.8125 4.3125 14.8125 C3.86651337 10.17423909 3.34403398 7.37125728 0.3125 3.8125 C0.3125 3.1525 0.3125 2.4925 0.3125 1.8125 C-1.16656892 1.78560784 -2.64577483 1.76615379 -4.125 1.75 C-4.94871094 1.73839844 -5.77242188 1.72679687 -6.62109375 1.71484375 C-8.67913938 1.57982652 -8.67913938 1.57982652 -9.6875 2.8125 C-9.75976502 4.66537502 -9.7713122 6.52083878 -9.75 8.375 C-9.74097656 9.38691406 -9.73195312 10.39882813 -9.72265625 11.44140625 C-9.71105469 12.22386719 -9.69945312 13.00632812 -9.6875 13.8125 C-10.6775 13.1525 -11.6675 12.4925 -12.6875 11.8125 C-13.11034054 7.51362116 -13.11510047 4.87024853 -11.5 0.875 C-7.94878802 -3.16603433 -4.34736738 -2.5168969 0 0 Z " fill="#EF5EFD" transform="translate(71.6875,27.1875)"/>
<path d="M0 0 C1.5 1.375 1.5 1.375 3 3 C3 3.66 3 4.32 3 5 C3.99 4.67 4.98 4.34 6 4 C9.57209485 12.08352579 10.5297857 18.90115306 10.25 27.6875 C10.23195313 28.78255859 10.21390625 29.87761719 10.1953125 31.00585938 C10.14875049 33.67153462 10.08338317 36.3352664 10 39 C9.67 39 9.34 39 9 39 C8.81824219 37.40671875 8.81824219 37.40671875 8.6328125 35.78125 C7.5083015 26.17633584 6.49415794 17.61449725 1.88671875 8.96484375 C0.54455095 5.99078912 0.26974488 3.23693857 0 0 Z " fill="#880697" transform="translate(83,23)"/>
<path d="M0 0 C0.66 0.33 1.32 0.66 2 1 C1.3503125 1.8353125 1.3503125 1.8353125 0.6875 2.6875 C-1.48692666 5.66726986 -3.40928635 8.70042998 -4.9375 12.0625 C-6 14 -6 14 -8.125 15.875 C-10.61280557 18.69451297 -10.15275475 20.33388605 -10 24 C-10.34675781 24.61875 -10.69351562 25.2375 -11.05078125 25.875 C-12.29506444 28.66055577 -11.81485356 30.0796217 -11.0625 33 C-10.19007167 36.42702385 -9.86436105 38.61657912 -11 42 C-15.31468217 35.34819831 -14.64378993 27.99691692 -13.4375 20.4375 C-11.45090733 12.51950921 -5.24504916 6.03975358 0 0 Z " fill="#CA18DC" transform="translate(26,28)"/>
<path d="M0 0 C3.12276528 3.26470915 3.74487741 6.58519567 4.5703125 10.87890625 C4.99058031 13.17436697 4.99058031 13.17436697 6 16 C7.29895428 26.09641738 7.29895428 26.09641738 4.47265625 30.23828125 C2.5625 32.0625 2.5625 32.0625 0.62890625 33.59765625 C-1.28613557 35.00401469 -1.28613557 35.00401469 -2 38 C-4.0625 38.6875 -4.0625 38.6875 -6 39 C-6 38.01 -6 37.02 -6 36 C-4.5390625 34.60546875 -4.5390625 34.60546875 -2.625 33.1875 C0.79467485 30.36195048 2.22148149 28.49810694 3 24 C3.59163246 17.39343757 2.75686329 13.08807311 0 7 C-0.1875 3.0625 -0.1875 3.0625 0 0 Z " fill="#F027F5" transform="translate(78,24)"/>
<path d="M0 0 C1.32 0.33 2.64 0.66 4 1 C3.03900391 1.54527344 3.03900391 1.54527344 2.05859375 2.1015625 C-2.24013427 4.60007804 -6.27373867 7.06626901 -10 10.375 C-13 13 -13 13 -15 13 C-15 13.66 -15 14.32 -15 15 C-17.52892721 17.73397536 -19.89595133 19.93063422 -23 22 C-22.78504727 16.35749083 -19.05971662 13.50268097 -15.25 9.8125 C-14.62867188 9.18408203 -14.00734375 8.55566406 -13.3671875 7.90820312 C-7.37999139 2.00310992 -7.37999139 2.00310992 -3 1 C-2.01 1.33 -1.02 1.66 0 2 C0 1.34 0 0.68 0 0 Z " fill="#7D028F" transform="translate(43,13)"/>
<path d="M0 0 C1.58941406 0.01353516 1.58941406 0.01353516 3.2109375 0.02734375 C4.40589844 0.04474609 4.40589844 0.04474609 5.625 0.0625 C5.625 0.7225 5.625 1.3825 5.625 2.0625 C4.59761719 2.23265625 3.57023437 2.4028125 2.51171875 2.578125 C-4.98738607 3.87151197 -12.04224809 5.3515528 -19.140625 8.1953125 C-21.20687792 8.99724982 -23.21529833 9.57706247 -25.375 10.0625 C-25.23046875 8.23046875 -25.23046875 8.23046875 -24.375 6.0625 C-21.86328125 4.61328125 -21.86328125 4.61328125 -18.6875 3.375 C-17.65238281 2.95863281 -16.61726563 2.54226562 -15.55078125 2.11328125 C-10.31391485 0.38054194 -5.4959504 -0.06106612 0 0 Z " fill="#7C018C" transform="translate(72.375,2.9375)"/>
<path d="M0 0 C2.97 0.495 2.97 0.495 6 1 C6 1.66 6 2.32 6 3 C6.66 3 7.32 3 8 3 C8.04254356 4.99954746 8.04080783 7.00041636 8 9 C7 10 7 10 5.15234375 10.09765625 C3.1015625 10.06510417 1.05078125 10.03255208 -1 10 C-2.25 3.375 -2.25 3.375 0 0 Z " fill="#F0A5FE" transform="translate(66,31)"/>
<path d="M0 0 C0.33 0 0.66 0 1 0 C1.38925113 2.33550681 1.71421916 4.65123869 2 7 C2.2475 8.918125 2.2475 8.918125 2.5 10.875 C2.40889428 15.55783381 0.16513191 18.51337499 -2.77734375 22.01171875 C-6.37413919 25.22923875 -10.41225495 26.67998483 -15 28 C-15 27.34 -15 26.68 -15 26 C-15.99 25.67 -16.98 25.34 -18 25 C-16.77023438 24.63648438 -16.77023438 24.63648438 -15.515625 24.265625 C-14.43796875 23.93046875 -13.3603125 23.5953125 -12.25 23.25 C-11.18265625 22.92515625 -10.1153125 22.6003125 -9.015625 22.265625 C-4.87526306 20.52796015 -2.82853949 18.55066107 -0.72265625 14.609375 C0.11937659 11.5689537 -0.02879276 9.36797275 -0.4375 6.25 C-0.65925014 4.50400941 -0.85578727 2.75409776 -1 1 C-0.67 0.67 -0.34 0.34 0 0 Z " fill="#EF4DF9" transform="translate(78,31)"/>
<path d="M0 0 C2.38830613 3.5824592 3.63542447 7.14932765 5.0625 11.1875 C5.4656543 12.28288086 5.4656543 12.28288086 5.87695312 13.40039062 C8.16165106 19.83286936 9.12656016 26.02536149 9.1875 32.875 C9.20167969 33.61492188 9.21585938 34.35484375 9.23046875 35.1171875 C9 37 9 37 7 39 C4.95059469 28.021043 4.95059469 28.021043 5.1875 23.125 C5.39726973 17.88075687 2.99328595 13.05530655 1.09375 8.26953125 C0.0811421 5.24255693 -0.23730242 3.15018967 0 0 Z " fill="#710879" transform="translate(87,19)"/>
<path d="M0 0 C0.69480469 0.28617187 1.38960937 0.57234375 2.10546875 0.8671875 C6.19480205 2.46760134 9.96634129 2.21418716 14.3125 2.125 C15.56643555 2.11146484 15.56643555 2.11146484 16.84570312 2.09765625 C18.89725969 2.07420989 20.94866777 2.03834266 23 2 C23.33 2.66 23.66 3.32 24 4 C20.23025424 5.25658192 16.67827808 5.22313998 12.75 5.25 C12.01136719 5.270625 11.27273437 5.29125 10.51171875 5.3125 C5.26275278 5.34952974 1.69241064 4.3586191 -3 2 C-2.01 1.34 -1.02 0.68 0 0 Z " fill="#B416C2" transform="translate(40,87)"/>
<path d="M0 0 C0.66 0.33 1.32 0.66 2 1 C1.3503125 1.8353125 1.3503125 1.8353125 0.6875 2.6875 C-1.48692666 5.66726986 -3.40928635 8.70042998 -4.9375 12.0625 C-6.28029395 14.51112426 -7.90507388 16.16693964 -10 18 C-10.66 18 -11.32 18 -12 18 C-9.83379871 11.06815586 -4.50655737 5.54653214 0 0 Z " fill="#C416CE" transform="translate(26,28)"/>
<path d="M0 0 C1.32 0 2.64 0 4 0 C3.67 2.97 3.34 5.94 3 9 C1 6 1 6 1 3 C0.34 3.165 -0.32 3.33 -1 3.5 C-4.73099794 4.12183299 -8.21873378 4.06408926 -12 4 C-8.09971775 1.39981184 -4.52565431 1.84914486 0 2 C0 1.34 0 0.68 0 0 Z " fill="#990AA8" transform="translate(78,3)"/>
<path d="M0 0 C0 3 0 3 -1.4609375 4.60546875 C-2.09257813 5.12753906 -2.72421875 5.64960937 -3.375 6.1875 C-4.00148438 6.71730469 -4.62796875 7.24710937 -5.2734375 7.79296875 C-7 9 -7 9 -9 9 C-9 8.34 -9 7.68 -9 7 C-8.34 7 -7.68 7 -7 7 C-6.67 5.68 -6.34 4.36 -6 3 C-5.34 3 -4.68 3 -4 3 C-4 2.34 -4 1.68 -4 1 C-2.68 0.67 -1.36 0.34 0 0 Z " fill="#BB15C2" transform="translate(85,76)"/>
<path d="M0 0 C1.32 0.33 2.64 0.66 4 1 C1.69 3.31 -0.62 5.62 -3 8 C-3.99 7.67 -4.98 7.34 -6 7 C-6 6.34 -6 5.68 -6 5 C-3.25 2.3125 -3.25 2.3125 0 0 Z " fill="#D617DE" transform="translate(34,21)"/>
<path d="M0 0 C1.32 0 2.64 0 4 0 C3.84518205 2.70931419 3.51827919 4.46584039 1.59765625 6.4453125 C0.10228292 7.67679642 -1.4462924 8.8429837 -3 10 C-3.66 9.67 -4.32 9.34 -5 9 C-4.0409375 7.88625 -4.0409375 7.88625 -3.0625 6.75 C-1.21666593 4.2888879 -0.43930826 2.96533074 0 0 Z " fill="#EE72FD" transform="translate(72,42)"/>
<path d="M0 0 C1.32 0 2.64 0 4 0 C3.67 1.32 3.34 2.64 3 4 C1.68 4 0.36 4 -1 4 C-1 4.66 -1 5.32 -1 6 C-1.99 5.67 -2.98 5.34 -4 5 C-2.25 2.5 -2.25 2.5 0 0 Z " fill="#70037F" transform="translate(44,9)"/>
<path d="M0 0 C0.66 0.33 1.32 0.66 2 1 C2.625 4.0625 2.625 4.0625 3 7 C2.01 6.67 1.02 6.34 0 6 C-1.1875 3.4375 -1.1875 3.4375 -2 1 C-1.34 0.67 -0.68 0.34 0 0 Z " fill="#B817CA" transform="translate(16,68)"/>
<path d="M0 0 C-2.55068845 2.35448165 -3.71017358 2.98327924 -7.25 3.1875 C-8.1575 3.125625 -9.065 3.06375 -10 3 C-6.68152292 -0.06320961 -4.44849969 -0.3033068 0 0 Z " fill="#720382" transform="translate(66,4)"/>
</svg>
